# xmcd
#
# Track frame offsets:
#	150
#	15615
#	32585
#	47745
#	62887
#	78340
#	90482
#	105882
#	119392
#	137015
#	154440
#	173130
#	191177
#
# Disc length: 2788 seconds
#
# Revision: 2
# Processed by: cddbd v1.4PL0 Copyright (c) Steve Scherf et al.
# Submitted via: audiograbber 1.81.02
#
DISCID=a40ae20d
DTITLE=Ray Vega - Remenber When
DYEAR=1997
DGENRE=Pop-Folk
TTITLE0=Remenber When
TTITLE1=I Can Dream
TTITLE2=Even More
TTITLE3=My Blue World
TTITLE4=You Don't Know What Love Is
TTITLE5=That Love
TTITLE6=Only Sometimes
TTITLE7=You Can't Say
TTITLE8=I Do
TTITLE9=Maria
TTITLE10=That's My Life
TTITLE11=Angel De Madrugada
TTITLE12=Anjo Da Madrugada
EXTD=Very Rare
EXTT0=
EXTT1=
EXTT2=
EXTT3=
EXTT4=
EXTT5=
EXTT6=
EXTT7=
EXTT8=
EXTT9=
EXTT10=
EXTT11=
EXTT12=
PLAYORDER=
